# xmcd
#
# Track frame offsets: 
#        150
#        16197
#        34781
#        49958
#        68296
#        81395
#        103727
#        115885
#        128796
#        145349
#        162055
#        182426
#        196594
#        212018
#
# Disc length: 3052 seconds
#
# Revision: 0
# Processed by: cddbd v1.5.2PL0 Copyright (c) Steve Scherf et al.
# Submitted via: ExactAudioCopy v1.3
#
DISCID=b40bea0e
DTITLE=Colt Ford - Answer to No One The Colt Ford Classics
DYEAR=2015
DGENRE=Country
TTITLE0=Answer to No One
TTITLE1=The High Life
TTITLE2=Crank It Up
TTITLE3=Back
TTITLE4=Huntin' the World
TTITLE5=Waste Some Time
TTITLE6=Cut 'em All
TTITLE7=Country Thang
TTITLE8=Drivin' Around Song
TTITLE9=Cold Beer
TTITLE10=Ride Through the Country
TTITLE11=Chicken and Biscuits
TTITLE12=No Trash in My Trailer
TTITLE13=Dirt Road Anthem
EXTD=
EXTT0=
EXTT1=
EXTT2=
EXTT3=
EXTT4=
EXTT5=
EXTT6=
EXTT7=
EXTT8=
EXTT9=
EXTT10=
EXTT11=
EXTT12=
EXTT13=
PLAYORDER=
